<svg xmlns="http://www.w3.org/2000/svg" version="1.1" xmlns:xlink="http://www.w3.org/1999/xlink" xmlns:svgjs="http://svgjs.dev/svgjs" width="100%" height="100%" viewBox="0 0 1000 600"><rect width="1000" height="600" x="0" y="0" fill="#556b2f"/><g><circle r="166.66666666666666" cx="514.9636942545573" cy="537.185902133445" fill="#ffff" transform="matrix(0.35888911202632506,0,0,0.358889112026325,0,107.20984036213625)"/><path d="M455.90763498286907 609.7108336910071L455.90763498286907 605.5665514842267L464.82935362246553 604.7319390953612Q467.70732737717407 604.3290227697021 467.70732737717407 602.4583398291416L467.70732737717407 602.4583398291416Q467.70732737717407 601.4222692774465 467.1029528886853 599.9832824000921L467.1029528886853 599.9832824000921L453.4325775538197 569.7069985005583L405.34163611264006 569.7069985005583L392.90878949229915 599.9832824000921Q392.3044150038104 601.4222692774465 392.3044150038104 602.4583398291416L392.3044150038104 602.4583398291416Q392.3044150038104 604.3290227697021 395.1823887585189 604.7319390953612L395.1823887585189 604.7319390953612L404.1041073981154 605.5665514842267L404.1041073981154 609.7108336910071L372.619074521604 609.7108336910071L372.619074521604 605.5665514842267L380.27448470912867 604.7319390953612Q382.749542138178 604.5304809325316 383.7856126898731 603.4944103808366Q384.82168324156817 602.4583398291416 386.08799169363994 599.7530444997155L386.08799169363994 599.7530444997155L443.4747883625282 462.38735718747694L450.0941279983578 462.38735718747694L510.81937422270795 599.7530444997155Q512.0569029372326 602.4583398291416 513.0929734889278 603.4944103808366Q514.1290440406228 604.5304809325316 516.6328812072193 604.7319390953612L516.6328812072193 604.7319390953612L524.288291394744 605.5665514842267L524.288291394744 609.7108336910071L455.90763498286907 609.7108336910071ZM407.84547327923644 563.4905751903879L450.7272822243937 563.4905751903879L428.3366464127613 513.9894266094011L407.84547327923644 563.4905751903879ZM593.3021020326547 606.6026220359217Q606.7710192046907 606.6026220359217 614.2249712293858 601.4222692774465Q621.6789232540809 596.241916518971 621.6789232540809 586.5143652280562L621.6789232540809 586.5143652280562Q621.6789232540809 578.6287171401548 618.2541344859777 573.4483643816795Q614.8293457178745 568.2680116232041 607.8070897563857 563.9222712535941Q600.7560540573497 559.5765308839843 587.0856787224842 553.5615657366434L587.0856787224842 553.5615657366434Q569.6739375064976 545.8773758115716 560.1478443784123 539.9775296144192Q550.59297151278 534.0776834172666 545.1248213788338 525.0696255650289Q539.6278915073405 516.0615677127912 539.6278915073405 502.16095447754896L539.6278915073405 502.16095447754896Q539.6278915073405 482.2741558325129 553.7011831678652 472.2300274285801Q567.803254565937 462.1858990246473 598.4824547911301 462.1858990246473L598.4824547911301 462.1858990246473Q612.1528301259957 462.1858990246473 624.9022538593545 464.8624146165263Q637.6228978551662 467.5677099459523 646.343158331933 471.7119921527326L646.343158331933 471.7119921527326L641.3642637362873 503.3984831920736L635.7809946521527 503.3984831920736Q631.8381706082021 490.7641784089031 627.5787694512333 483.31022638420797Q623.3481480318119 475.8562743595129 616.0956541699463 471.7983313653738Q608.8431603080808 467.7691681087819 596.8132300133991 467.7691681087819L596.8132300133991 467.7691681087819Q569.4724793436679 467.7691681087819 569.4724793436679 485.58382565042774L569.4724793436679 485.58382565042774Q569.4724793436679 492.83631951229324 572.7821491615828 497.6137559451094Q576.0918189794976 502.3624126403785 582.7111586153272 506.21889747168797Q589.359277988704 510.0466025654503 604.6988781013006 517.5005545901454L604.6988781013006 517.5005545901454L608.8431603080808 519.3712375307059Q628.0968047270808 528.6958724959616 637.3351004796953 534.4805997429257Q646.5446164947625 540.2941067274371 651.9264274160676 548.8992482540156Q657.3082383373726 557.5043897805941 657.3082383373726 571.1747651154596L657.3082383373726 571.1747651154596Q657.3082383373726 591.4644800861549 642.0837571749644 601.8251856031056Q626.8592760125562 612.1858911200563 594.3381725843498 612.1858911200563L594.3381725843498 612.1858911200563Q581.2721717379729 612.1858911200563 565.4145363495289 609.3079173653477Q549.5569009610849 606.4011638730922 540.8654202218651 602.256881666312L540.8654202218651 602.256881666312L546.4486893059997 565.7929541941546L551.8592799648517 565.7929541941546Q554.5357955567306 581.9383869580697 559.9176064780356 590.860105597666Q565.3281971368876 599.7530444997155 573.3865236500716 603.1778332678186Q581.4736299008026 606.6026220359217 593.3021020326547 606.6026220359217L593.3021020326547 606.6026220359217Z " fill="#556b2f" transform="matrix(0.35888911202632506,0,0,0.358889112026325,0,107.20984036213625)"/><path d="M845.5615033968857 608.5654056966052L845.5615033968857 604.5550086996911L854.1949969319093 603.7473593044792Q856.979994846433 603.3574595964458 856.979994846433 601.5472109520053L856.979994846433 601.5472109520053Q856.979994846433 600.5446117027768 856.395145284383 599.1521127455151L856.395145284383 599.1521127455151L843.1664051903952 569.8539346847253L796.6290900387037 569.8539346847253L784.5978990479612 599.1521127455151Q784.0130494859111 600.5446117027768 784.0130494859111 601.5472109520053L784.0130494859111 601.5472109520053Q784.0130494859111 603.3574595964458 786.7980474004348 603.7473593044792L786.7980474004348 603.7473593044792L795.4315409354585 604.5550086996911L795.4315409354585 608.5654056966052L764.9636637505689 608.5654056966052L764.9636637505689 604.5550086996911L772.371758203202 603.7473593044792Q774.7668564096923 603.5524094504626 775.7694556589208 602.5498102012341Q776.7720549081495 601.5472109520053 777.99745399054 598.9293129123532L777.99745399054 598.9293129123532L833.5303124061431 466.00136245213537L839.9358076095477 466.00136245213537L898.6992636059986 598.9293129123532Q899.8968127092437 601.5472109520053 900.8994119584722 602.5498102012341Q901.9020112077008 603.5524094504626 904.3249593933365 603.7473593044792L904.3249593933365 603.7473593044792L911.7330538459696 604.5550086996911L911.7330538459696 608.5654056966052L845.5615033968857 608.5654056966052ZM799.0520382243393 563.8383391893541L840.5485071507429 563.8383391893541L818.8812233757483 515.936375059546L799.0520382243393 563.8383391893541ZM1049.4790506983134 598.9293129123532Q1049.4790506983134 601.1573112439721 1050.3981000101062 601.9371106600388Q1051.2892993427538 602.7447600552507 1054.2970970904394 603.3574595964458L1054.2970970904394 603.3574595964458L1061.3152918350393 604.9449084077244L1061.3152918350393 608.5654056966052L1019.623873054619 608.5654056966052Q1014.1931271212977 608.5654056966052 1011.7980289148072 605.7525578029363Q1009.3750807291717 602.9397099092673 1009.3750807291717 597.3418641010746L1009.3750807291717 597.3418641010746L1009.3750807291717 536.3782597521501Q1009.3750807291717 527.3548665090932 1006.4786828980668 523.5394193661957Q1003.5822850669622 519.7239722232982 996.7590401763791 519.7239722232982L996.7590401763791 519.7239722232982Q984.7278491856366 519.7239722232982 972.0839586536988 529.7499647155837L972.0839586536988 529.7499647155837L972.0839586536988 598.9293129123532Q972.0839586536988 601.1573112439721 973.0030079654916 602.0485105766197Q973.8942072981392 602.9397099092673 976.7070551918082 603.5524094504626L976.7070551918082 603.5524094504626L983.5303000823915 604.9449084077244L983.5303000823915 608.5654056966052L920.1437475478313 608.5654056966052L920.1437475478313 604.9449084077244L927.1619422924309 603.3574595964458Q930.1697400401167 602.7447600552507 931.0887893519096 601.9371106600388Q931.9799886845572 601.1573112439721 931.9799886845572 598.9293129123532L931.9799886845572 598.9293129123532L931.9799886845572 523.1495196581624Q931.9799886845572 520.9493713056886 931.0887893519096 520.1417219104767Q930.1697400401167 519.3340725152648 927.1619422924309 518.7213729740697L927.1619422924309 518.7213729740697L920.1437475478313 517.1339241627911L920.1437475478313 513.5134268739102L968.2685115108013 507.497831378539L971.6940589456656 507.497831378539L971.6940589456656 523.7343692202123Q979.2971032523153 517.5238238708245 990.3256949938293 513.1235271658769Q1001.3542867353433 508.6953804817842 1014.805826662493 508.6953804817842L1014.805826662493 508.6953804817842Q1033.4374627106567 508.6953804817842 1041.458256704485 516.5212246215958Q1049.4790506983134 524.3470687614076 1049.4790506983134 539.998757041031L1049.4790506983134 539.998757041031L1049.4790506983134 598.9293129123532ZM1169.2061110436887 608.5654056966052Q1163.7753651103674 608.5654056966052 1161.3802669038769 605.7525578029363Q1158.9851686973866 602.9397099092673 1158.9851686973866 597.3418641010746L1158.9851686973866 597.3418641010746Q1146.1463283114322 610.9605039030957 1124.0891448284042 610.9605039030957L1124.0891448284042 610.9605039030957Q1102.0319613453762 610.9605039030957 1088.8867711888242 598.3444633503032Q1075.7694310114175 585.7005728183653 1075.7694310114175 558.8253429432114L1075.7694310114175 558.8253429432114Q1075.7694310114175 532.9805622964311 1088.8032212513885 520.8379713891077Q1101.8370114913596 508.6953804817842 1124.0891448284042 508.6953804817842L1124.0891448284042 508.6953804817842Q1136.1203358191467 508.6953804817842 1144.2246797504108 511.50822837545314Q1152.3568736608202 514.3210762691222 1158.567419010208 518.7213729740697L1158.567419010208 518.7213729740697L1158.567419010208 477.8376035888612Q1158.567419010208 475.60960525724226 1157.6762196775603 474.82980584117564Q1156.7571703657675 474.02215644596373 1153.749372618082 473.4094569047685L1153.749372618082 473.4094569047685L1146.731177873482 471.82200809348996L1146.731177873482 468.20151080460914L1194.8559418364523 462.1859153092378L1198.6713889793498 462.1859153092378L1198.6713889793498 598.9293129123532Q1198.6713889793498 601.1573112439721 1199.5904382911426 601.9371106600388Q1200.4816376237902 602.7447600552507 1203.4894353714758 603.3574595964458L1203.4894353714758 603.3574595964458L1210.5076301160757 604.9449084077244L1210.5076301160757 608.5654056966052L1169.2061110436887 608.5654056966052ZM1135.92538596513 602.3548603472173Q1147.7337771227108 602.3548603472173 1158.567419010208 591.1313187516866L1158.567419010208 591.1313187516866L1158.567419010208 524.7369684694409Q1148.9591762051011 517.1339241627911 1136.9279852143586 517.1339241627911L1136.9279852143586 517.1339241627911Q1125.8993934728446 517.1339241627911 1121.4712467887518 526.8535668844789Q1117.0709500838043 536.5732096061668 1117.0709500838043 558.8253429432114L1117.0709500838043 558.8253429432114Q1117.0709500838043 574.6719810768514 1118.7697988116638 584.0017240905061Q1120.4686475395233 593.3314671041605 1124.5904444530186 597.843163725689Q1128.6843913873684 602.3548603472173 1135.92538596513 602.3548603472173L1135.92538596513 602.3548603472173ZM1349.4790260508098 598.9293129123532Q1349.4790260508098 601.1573112439721 1350.3702253834574 601.9371106600388Q1351.261424716105 602.7447600552507 1354.2692224637906 603.3574595964458L1354.2692224637906 603.3574595964458L1361.2874172083905 604.9449084077244L1361.2874172083905 608.5654056966052L1319.59599842797 608.5654056966052Q1314.165252494649 608.5654056966052 1311.7701542881584 605.7525578029363Q1309.3750560816682 602.9397099092673 1309.3750560816682 597.3418641010746L1309.3750560816682 597.3418641010746L1309.3750560816682 536.3782597521501Q1309.3750560816682 527.3548665090932 1306.450808271418 523.5394193661957Q1303.5544104403134 519.7239722232982 1296.7311655497303 519.7239722232982L1296.7311655497303 519.7239722232982Q1284.6999745589878 519.7239722232982 1272.05608402705 529.7499647155837L1272.05608402705 529.7499647155837L1272.05608402705 598.9293129123532Q1272.05608402705 601.1573112439721 1272.9751333388429 602.0485105766197Q1273.8663326714905 602.9397099092673 1276.6791805651594 603.5524094504626L1276.6791805651594 603.5524094504626L1283.5024254557427 604.9449084077244L1283.5024254557427 608.5654056966052L1220.1437229003277 608.5654056966052L1220.1437229003277 604.9449084077244L1227.1619176449276 603.3574595964458Q1230.1697153926132 602.7447600552507 1231.0609147252608 601.9371106600388Q1231.9521140579084 601.1573112439721 1231.9521140579084 598.9293129123532L1231.9521140579084 598.9293129123532L1231.9521140579084 477.8376035888612Q1231.9521140579084 475.60960525724226 1231.0609147252608 474.82980584117564Q1230.1697153926132 474.02215644596373 1227.1619176449276 473.4094569047685L1227.1619176449276 473.4094569047685L1220.1437229003277 471.82200809348996L1220.1437229003277 468.20151080460914L1268.2684868632978 462.1859153092378L1272.05608402705 462.1859153092378L1272.05608402705 523.5394193661957Q1279.6869783128452 517.3288740168077 1290.5206202003424 513.012127249296Q1301.3542620878397 508.6953804817842 1314.7779520358442 508.6953804817842L1314.7779520358442 508.6953804817842Q1333.4374380631532 508.6953804817842 1341.4582320569816 516.5212246215958Q1349.4790260508098 524.3470687614076 1349.4790260508098 539.998757041031L1349.4790260508098 539.998757041031L1349.4790260508098 598.9293129123532ZM1422.0560717032984 527.1599166550766Q1439.490158648217 509.3080800229794 1457.5369451343308 509.3080800229794L1457.5369451343308 509.3080800229794Q1464.165240170897 509.3080800229794 1467.9806873137945 510.9233788134032L1467.9806873137945 510.9233788134032L1464.9728895661092 542.1989053935047L1463.552540629702 542.1989053935047L1422.4459714113318 533.1755121504477L1422.4459714113318 598.9293129123532Q1422.4459714113318 601.1573112439721 1423.3650207231244 602.0485105766197Q1424.2562200557722 602.9397099092673 1427.069067949441 603.5524094504626L1427.069067949441 603.5524094504626L1433.8923128400243 604.9449084077244L1433.8923128400243 608.5654056966052L1370.5336102846093 608.5654056966052L1370.5336102846093 604.9449084077244L1377.551805029209 603.3574595964458Q1380.5596027768947 602.7447600552507 1381.4508021095423 601.9371106600388Q1382.34200144219 601.1573112439721 1382.34200144219 598.9293129123532L1382.34200144219 598.9293129123532L1382.34200144219 523.1495196581624Q1382.34200144219 520.9493713056886 1381.4508021095423 520.1417219104767Q1380.5596027768947 519.3340725152648 1377.551805029209 518.7213729740697L1377.551805029209 518.7213729740697L1370.5336102846093 517.1339241627911L1370.5336102846093 513.5134268739102L1418.6583742475796 507.497831378539L1422.0560717032984 507.497831378539L1422.0560717032984 527.1599166550766ZM1557.796870057185 608.5654056966052Q1552.1990242489924 608.5654056966052 1549.8874759799378 606.2538574275507Q1547.575927710883 603.9423091584958 1547.575927710883 598.5394132043198L1547.575927710883 598.5394132043198L1547.575927710883 597.5368139550912Q1534.1522377628787 610.5706041950623 1509.2822063861818 610.5706041950623L1509.2822063861818 610.5706041950623Q1496.2484161462107 610.5706041950623 1488.9238716310133 604.6664086162721Q1481.5993271158159 598.7343630583364 1481.5993271158159 586.3132723595606L1481.5993271158159 586.3132723595606Q1481.5993271158159 573.8643316816397 1488.9238716310133 566.8461369370398Q1496.2484161462107 559.8279421924399 1510.2848056354103 556.8201444447543Q1524.3211951246099 553.8123466970687 1547.575927710883 553.2274971350187L1547.575927710883 553.2274971350187L1547.575927710883 538.5784081046238Q1547.575927710883 527.3548665090932 1543.1756310059354 522.4532701795315Q1538.7474843218429 517.5238238708245 1527.7188925803289 517.5238238708245L1527.7188925803289 517.5238238708245Q1518.5005494832553 517.5238238708245 1510.5911554060076 520.0303219938958Q1502.653911349615 522.5368201169672 1494.4381675017703 527.5498163631098L1494.4381675017703 527.5498163631098L1491.8481194412632 523.7343692202123Q1501.45636224637 516.9389743087745 1514.9914521109554 512.8171773952793Q1528.5265419755408 508.6953804817842 1545.375779358409 508.6953804817842L1545.375779358409 508.6953804817842Q1568.0456623826326 508.6953804817842 1577.6539051877394 517.6352237874054Q1587.2899979719914 526.5472171138813 1587.2899979719914 543.3964544967499L1587.2899979719914 543.3964544967499L1587.2899979719914 598.9293129123532Q1587.2899979719914 601.1573112439721 1588.181197304639 601.9371106600388Q1589.1002466164318 602.7447600552507 1592.1080443641176 603.3574595964458L1592.1080443641176 603.3574595964458L1599.1262391087173 604.9449084077244L1599.1262391087173 608.5654056966052L1557.796870057185 608.5654056966052ZM1531.729289577243 597.9267136631247Q1540.3627831122667 597.9267136631247 1547.575927710883 591.1313187516866L1547.575927710883 591.1313187516866L1547.575927710883 558.6303930891947Q1536.3523861153521 559.4380424844067 1530.5317404739976 562.1394904614947Q1524.7110948326433 564.8409384385827 1522.6223463967503 569.8539346847253Q1520.5057479817124 574.8669309308682 1520.5057479817124 583.5004244658917L1520.5057479817124 583.5004244658917Q1520.5057479817124 591.1313187516866 1523.2071959588004 594.5290162074057Q1525.9364939150337 597.9267136631247 1531.729289577243 597.9267136631247L1531.729289577243 597.9267136631247ZM1724.451145262285 605.5576079489197Q1737.4849355022563 605.5576079489197 1744.6980801008726 600.5446117027768Q1751.9112246994894 595.5316154566342 1751.9112246994894 586.118322505544L1751.9112246994894 586.118322505544Q1751.9112246994894 578.4874282197491 1748.5970771812063 573.4744319736062Q1745.282929662923 568.4614357274636 1738.4875347514849 564.2560888765327Q1731.664289860902 560.0507420256018 1718.435549766914 554.2300963842472L1718.435549766914 554.2300963842472Q1701.5863123840454 546.7941519524688 1692.3679692869719 541.0849062276952Q1683.121776210753 535.3756605029216 1677.830280173158 526.6586170304622Q1672.5109341564175 517.941573558003 1672.5109341564175 504.49003363085336L1672.5109341564175 504.49003363085336Q1672.5109341564175 485.24569804149434 1686.1295739584386 475.5260553198065Q1699.776063739605 465.8064125981187 1729.464141508428 465.8064125981187L1729.464141508428 465.8064125981187Q1742.6928816024158 465.8064125981187 1755.0304223637559 468.3964606586258Q1767.340113145951 471.0143586982781 1775.7786568269578 475.02475569519225L1775.7786568269578 475.02475569519225L1770.9606104348316 505.68758273409856L1765.5577144806555 505.68758273409856Q1761.742267337758 493.46144188933937 1757.6204704242627 486.2482972907229Q1753.526523489913 479.03515269210646 1746.5083287453133 475.10830563262795Q1739.4901340007134 471.2093085522948 1727.848842718004 471.2093085522948L1727.848842718004 471.2093085522948Q1701.3913625300288 471.2093085522948 1701.3913625300288 488.44844564319664L1701.3913625300288 488.44844564319664Q1701.3913625300288 495.4666403877965 1704.5941101317312 500.08973692590587Q1707.7968577334332 504.68498348487003 1714.202352936838 508.4168806903318Q1720.6356981193876 512.1209279166484 1735.479737003799 519.3340725152648L1735.479737003799 519.3340725152648L1739.4901340007134 521.1443211597052Q1758.1217700488774 530.1677144027622 1767.0616133544984 535.7655602109548Q1775.9736066809742 541.3912559982928 1781.1815527811336 549.7183997627187Q1786.389498881293 558.0455435271447 1786.389498881293 571.2742836211326L1786.389498881293 571.2742836211326Q1786.389498881293 590.9085189185248 1771.6568599134625 600.9345114108103Q1756.924220945632 610.9605039030957 1725.4537445115138 610.9605039030957L1725.4537445115138 610.9605039030957Q1712.809853979576 610.9605039030957 1697.4645154705502 608.175505988572Q1682.1191769615245 605.362658094903 1673.708483259663 601.3522610979887L1673.708483259663 601.3522610979887L1679.111379213839 566.0663375209731L1684.3471752931437 566.0663375209731Q1686.9372233536506 581.6901758214512 1692.14516945381 590.3236693564747Q1697.3809655331147 598.9293129123532 1705.178959693781 602.2434604306363Q1713.0048038335926 605.5576079489197 1724.451145262285 605.5576079489197L1724.451145262285 605.5576079489197ZM1929.5662416669584 514.1261264151055L1924.358295566799 515.3236755183507Q1919.7351990286893 516.3262747675792 1919.7351990286893 519.1391226612482L1919.7351990286893 519.1391226612482Q1919.7351990286893 520.3366717644934 1920.737798277918 522.3418702629506L1920.737798277918 522.3418702629506L1944.0203808433366 569.0741352686587L1967.6650131376427 518.1365234120196Q1967.8599629916594 517.7187737248412 1967.8599629916594 516.9389743087745L1967.8599629916594 516.9389743087745Q1967.8599629916594 515.936375059546 1966.857363742431 515.5186253723673Q1965.8547644932023 515.1287256643341 1963.8495659947453 514.7109759771554L1963.8495659947453 514.7109759771554L1958.6416198945858 514.1261264151055L1958.6416198945858 511.11832866741986L1981.7014026268425 511.11832866741986L1981.7014026268425 514.1261264151055L1976.493456526683 514.9337758103175Q1974.0983583201928 515.3236755183507 1973.095759070964 515.936375059546Q1972.0931598217358 516.5212246215958 1971.090560572507 518.7213729740697L1971.090560572507 518.7213729740697L1930.37389106217 612.1859029854861L1926.7533937732892 612.1859029854861L1891.272520342257 544.5940035999952L1861.8072424065958 612.1859029854861L1858.186745117715 612.1859029854861L1809.6720814467117 519.5290223692815Q1808.669482197483 517.7187737248412 1807.3605331776566 516.9389743087745Q1806.0515841578308 516.1313249135626 1804.0463856593738 515.713575226384L1804.0463856593738 515.713575226384L1798.0307901640022 514.1261264151055L1798.0307901640022 511.11832866741986L1859.3842942209599 511.11832866741986L1859.3842942209599 514.1261264151055L1855.7916469112247 514.9337758103175Q1851.168550373115 515.936375059546 1851.168550373115 519.1391226612482L1851.168550373115 519.1391226612482Q1851.168550373115 520.3366717644934 1852.1711496223438 522.3418702629506L1852.1711496223438 522.3418702629506L1875.4258822086167 569.0741352686587L1888.2647225945711 538.9961577918025L1878.238730102286 519.5290223692815Q1877.2361308530571 517.5238238708245 1876.122131687248 516.6326245381769Q1875.0359825005835 515.713575226384 1873.4206837101597 515.3236755183507L1873.4206837101597 515.3236755183507L1868.6026373180334 514.1261264151055L1868.6026373180334 511.11832866741986L1929.5662416669584 511.11832866741986L1929.5662416669584 514.1261264151055ZM2033.8365635867267 557.2378941319329Q2034.0315134407433 579.4900274689776 2040.9661582479075 591.1313187516866Q2047.8729530759265 602.7447600552507 2066.9223388112687 602.7447600552507L2066.9223388112687 602.7447600552507Q2076.363481741504 602.7447600552507 2083.6601762775563 599.9319121615817Q2090.9847207927537 597.146914247058 2098.8105649325653 591.9111181677533L2098.8105649325653 591.9111181677533L2101.428462972218 595.7265653106508Q2082.768976944909 610.9605039030957 2052.078299926857 610.9605039030957L2052.078299926857 610.9605039030957Q2024.4232706356365 610.9605039030957 2008.4652325854154 597.6482138716722Q1992.53504451434 584.3080738611036 1992.53504451434 558.6303930891947L1992.53504451434 558.6303930891947Q1992.53504451434 534.3730612536931 2008.7715823560134 521.5342208677387Q2025.0081201976864 508.6953804817842 2054.306298258476 508.6953804817842L2054.306298258476 508.6953804817842Q2070.9327358081828 508.6953804817842 2082.379077236875 513.9311765610888Q2093.797568686423 519.1391226612482 2099.31186455718 527.8561661337075Q2104.8261604279364 536.5732096061668 2104.8261604279364 547.2119016396474L2104.8261604279364 547.2119016396474Q2104.8261604279364 552.6147975938234 2103.823561178708 557.2378941319329L2103.823561178708 557.2378941319329L2033.8365635867267 557.2378941319329ZM2053.0808991760855 513.5134268739102Q2042.0523074345715 513.5134268739102 2038.0419104376574 522.7317699709838Q2034.0315134407433 531.9779630472026 2033.8365635867267 552.0299480317735L2033.8365635867267 552.0299480317735L2067.5350383524637 552.0299480317735L2067.5350383524637 536.9909592933453Q2067.5350383524637 524.7369684694409 2064.610790542214 519.1391226612482Q2061.714392711109 513.5134268739102 2053.0808991760855 513.5134268739102L2053.0808991760855 513.5134268739102ZM2165.7897647768614 557.2378941319329Q2165.984714630878 579.4900274689776 2172.8915094588965 591.1313187516866Q2179.8261542660607 602.7447600552507 2198.875540001403 602.7447600552507L2198.875540001403 602.7447600552507Q2208.2888329524935 602.7447600552507 2215.6133774676905 599.9319121615817Q2222.937921982888 597.146914247058 2230.7637661227 591.9111181677533L2230.7637661227 591.9111181677533L2233.353814183207 595.7265653106508Q2214.722178135043 610.9605039030957 2184.0315011169914 610.9605039030957L2184.0315011169914 610.9605039030957Q2156.3486218466255 610.9605039030957 2140.41843377555 597.6482138716722Q2124.488245704474 584.3080738611036 2124.488245704474 558.6303930891947L2124.488245704474 558.6303930891947Q2124.488245704474 534.3730612536931 2140.7247835461476 521.5342208677387Q2156.961321387821 508.6953804817842 2186.231649469465 508.6953804817842L2186.231649469465 508.6953804817842Q2202.8859369983174 508.6953804817842 2214.3044284478647 513.9311765610888Q2225.750769876557 519.1391226612482 2231.265065747314 527.8561661337075Q2236.779361618071 536.5732096061668 2236.779361618071 547.2119016396474L2236.779361618071 547.2119016396474Q2236.779361618071 552.6147975938234 2235.7767623688424 557.2378941319329L2235.7767623688424 557.2378941319329L2165.7897647768614 557.2378941319329ZM2185.03410036622 513.5134268739102Q2174.005508624706 513.5134268739102 2169.995111627792 522.7317699709838Q2165.984714630878 531.9779630472026 2165.7897647768614 552.0299480317735L2165.7897647768614 552.0299480317735L2199.460389563453 552.0299480317735L2199.460389563453 536.9909592933453Q2199.460389563453 524.7369684694409 2196.5639917323488 519.1391226612482Q2193.6675939012434 513.5134268739102 2185.03410036622 513.5134268739102L2185.03410036622 513.5134268739102ZM2263.849541347242 516.3262747675792L2250.815751107271 516.3262747675792L2250.815751107271 511.11832866741986Q2257.0262964566587 511.11832866741986 2260.0340942043445 510.1157294181913Q2263.0418919520303 509.11313016896275 2266.0496896997156 506.49523212931047L2266.0496896997156 506.49523212931047L2301.725512984765 474.41205615399707L2303.535761629205 474.41205615399707L2303.535761629205 511.11832866741986L2329.4083922551304 511.11832866741986L2329.4083922551304 516.3262747675792L2303.535761629205 516.3262747675792L2303.535761629205 583.6953743199083Q2303.535761629205 593.3314671041605 2305.84730989826 597.2304641844937Q2308.158858167314 601.1573112439721 2313.7567039755068 601.1573112439721L2313.7567039755068 601.1573112439721Q2318.1848506595998 601.1573112439721 2321.582548115319 599.3470625995317Q2325.008095550183 597.5368139550912 2329.018492547097 593.1365172501437L2329.018492547097 593.1365172501437L2332.2212401487996 596.9241144138962Q2319.5773496168617 610.9605039030957 2294.9301180733264 610.9605039030957L2294.9301180733264 610.9605039030957Q2278.2758305444745 610.9605039030957 2271.0626859458584 603.9423091584958Q2263.849541347242 596.9241144138962 2263.849541347242 582.1079255086297L2263.849541347242 582.1079255086297L2263.849541347242 516.3262747675792ZM2389.564347208843 606.170307490115Q2398.9776401599333 606.170307490115 2403.4893367814616 603.3574595964458Q2408.0010334029903 600.5446117027768 2408.0010334029903 593.5264169581772L2408.0010334029903 593.5264169581772Q2408.0010334029903 588.7083705660511 2405.6059351964996 585.7005728183653Q2403.2108369900093 582.6927750706798 2397.9750409107046 580.2976768641895Q2392.767094810545 577.8747286785538 2381.3486033609984 573.6693818276228L2381.3486033609984 573.6693818276228Q2361.8814679384773 566.6511870830232 2353.665724090632 559.131692713809Q2345.449980242787 551.6121983445948 2345.449980242787 538.3834582506072L2345.449980242787 538.3834582506072Q2345.449980242787 523.3444695121791 2356.673521838318 516.0199249969817Q2367.8970634338484 508.6953804817842 2390.7618963120885 508.6953804817842L2390.7618963120885 508.6953804817842Q2402.4031875947976 508.6953804817842 2413.626729190328 511.0069287508389Q2424.850270785859 513.3184770198936 2431.0608161352466 516.3262747675792L2431.0608161352466 516.3262747675792L2428.6657179287563 540.3886567490642L2425.2680204730373 540.3886567490642Q2419.837274539716 526.96496680106 2412.2342302330662 520.0303219938958Q2404.6033359472713 513.1235271658769 2390.1770467500382 513.1235271658769L2390.1770467500382 513.1235271658769Q2380.9308536738195 513.1235271658769 2375.917857427677 515.6300252889482Q2370.904861181534 518.1365234120196 2370.904861181534 524.7369684694409L2370.904861181534 524.7369684694409Q2370.904861181534 529.3600650075502 2373.216409450589 532.1729129012192Q2375.5279577196434 534.9857607948882 2380.4295540492053 537.3808590013787Q2385.3590003579125 539.775957207869 2396.7774918074597 544.3990537459784L2396.7774918074597 544.3990537459784Q2413.236829482295 551.027348782545 2421.6475231841564 555.8175451955258Q2430.058216886018 560.6355915876518 2434.0686138829324 566.8461369370398Q2438.0790108798465 573.084532265573 2438.0790108798465 582.4978252166632L2438.0790108798465 582.4978252166632Q2438.0790108798465 597.5368139550912 2426.5491195137183 604.2486589290934Q2415.0192281475897 610.9605039030957 2391.9594454153334 610.9605039030957L2391.9594454153334 610.9605039030957Q2379.7333045705745 610.9605039030957 2366.3931645600055 608.6768056131862Q2353.080874528582 606.3652573441316 2346.4525794920155 603.3574595964458L2346.4525794920155 603.3574595964458L2349.2654273856847 576.0923300132586L2352.6631248414037 576.0923300132586Q2356.2836221302846 591.9111181677533 2365.501965227358 599.0407128289341Q2374.7203083244317 606.170307490115 2389.564347208843 606.170307490115L2389.564347208843 606.170307490115Z " fill="#ffff" transform="matrix(0.35888911202632506,0,0,0.358889112026325,0,107.20984036213625)"/></g></svg>