<svg xmlns="http://www.w3.org/2000/svg" version="1.1" xmlns:xlink="http://www.w3.org/1999/xlink" xmlns:svgjs="http://svgjs.dev/svgjs" width="100%" height="100%" viewBox="0 0 1000 600"><rect width="1000" height="600" x="0" y="0" fill="#c7c6c6;"/><g><rect width="333.3333333333333" height="333.3333333333333" rx="13.333333333333334" ry="13.333333333333334" y="219.54370418819315" fill="#c7c6c6;" transform="matrix(0.6334840495841547,0,0,0.6334840495841547,0,55.34190468671086)" x="197.32145690917966"/><path d="M351.8274644772372 386.0026027290279L351.8274644772372 386.0026027290279Q351.8274644772372 374.4513573308802 349.3343899308744 362.4845995083389Q346.84131538451163 350.5178416857974 341.24574806934174 340.35163770229576Q335.6778815824648 330.1577328905013 326.28730079116497 323.8973456963013Q316.9244208281581 317.60925767380854 303.1571091665768 317.60925767380854L303.1571091665768 317.60925767380854Q289.8053099293894 317.60925767380854 280.41472913808946 324.17435397923055Q271.05184917508257 330.7671511129455 265.26237606186226 341.23806420766925Q259.47290294864194 351.708977302393 256.78592260422874 363.78653843810605Q254.09894225981552 375.83639874552625 254.09894225981552 386.9998325475731L254.09894225981552 386.9998325475731Q254.09894225981552 398.772684572064 256.48121349300663 410.65633990972674Q258.8911855544907 422.5122944190964 264.4590520413676 432.37378929137594Q270.0546193565374 442.26298499194843 279.5283026327161 448.24636390321905Q289.00198590889465 454.2297428144898 303.1571091665768 454.2297428144898L303.1571091665768 454.2297428144898Q317.3122324242589 454.2297428144898 326.70281321555876 448.0524581051686Q336.06569317856577 441.8474725675545 341.55045718056385 431.7920718972247Q347.03522118256205 421.70897039860176 349.4451932440461 409.7422125760603Q351.8274644772372 397.77545475351894 351.8274644772372 386.0026027290279ZM373.57261468717934 385.42088533487663L373.57261468717934 385.42088533487663Q373.57261468717934 407.55384714091963 365.4839728256468 424.39595074301496Q357.4230317924071 441.26575517340325 341.7443629786143 450.62863513641025Q326.09339499311454 460.0192159277101 303.1571091665768 460.0192159277101L303.1571091665768 460.0192159277101Q280.83024156248325 460.0192159277101 264.95766695064015 450.93334424763236Q249.1127931670899 441.8474725675545 240.74714302262808 425.39318056156014Q232.3537920498733 408.93888855556565 232.3537920498733 386.9998325475731L232.3537920498733 386.9998325475731Q232.3537920498733 371.65357367329534 237.33994114259892 358.0801678097646Q242.3260902353245 344.5344627745267 251.71667102662437 334.14665216468177Q261.07955098963134 323.7865423831296 274.15434194388956 317.91396678503065Q287.20143206985483 312.01369035863866 303.1571091665768 312.01369035863866L303.1571091665768 312.01369035863866Q325.51167759896316 312.01369035863866 341.162645584463 321.2934678367668Q356.81361356996274 330.5732453148951 365.17926371442456 347.02753732088956Q373.57261468717934 363.48182932688394 373.57261468717934 385.42088533487663ZM495.62246414578476 421.9028761966522L495.62246414578476 421.9028761966522Q495.62246414578476 433.28791662504227 490.4424092550088 440.85024274900945Q485.2623543642327 448.4402697012696 476.7859009065992 452.9278038847226Q468.30944744896567 457.41533806817563 458.4202517483933 459.2989943920942Q448.55875687611376 461.2103515443057 439.19587691310676 461.2103515443057L439.19587691310676 461.2103515443057Q427.00751246422203 461.2103515443057 416.2595910865691 457.41533806817563L416.2595910865691 457.41533806817563Q411.85515938799483 455.80869002718623 407.6723343157638 453.9250337032677Q403.4895092435329 452.0413773793491 398.8911717469082 450.8225409344607L398.8911717469082 450.8225409344607Q398.08784772641354 444.4513504270891 396.204191402495 436.86132347482896Q394.3205350785764 429.2989973508618 394.3205350785764 423.1217126415406L394.3205350785764 423.1217126415406Q394.3205350785764 420.32392898395574 395.2069615839499 418.828084256138Q396.0933880893233 417.33223952832043 399.306684171302 417.33223952832043L399.306684171302 417.33223952832043Q402.07676700059403 417.33223952832043 402.8800910210887 418.6341784580876Q403.6834150415833 419.90841655956194 404.0712266376843 422.12448282299556L404.0712266376843 422.12448282299556Q404.8745506581789 424.8945656522876 405.48396888062314 427.60924682499365Q406.0656862747745 430.29622716940696 406.86901029526916 433.09401082699185L406.86901029526916 433.09401082699185Q410.85792956944965 445.0607686495333 418.7526656329318 449.8253111159155Q426.6197008681211 454.61755441059074 438.9742702867634 454.61755441059074L438.9742702867634 454.61755441059074Q449.168175098558 454.61755441059074 457.2291161317977 451.736668268127Q465.31775799333036 448.82808129737043 469.9991979748338 442.26298499194843Q474.68063795633725 435.6701878582335 474.68063795633725 424.7006598542371L474.68063795633725 424.7006598542371Q474.68063795633725 416.1411039117248 468.89116484311694 409.24359766678776Q463.1293925581897 402.37379225014365 456.1487838283738 398.38487297596316L456.1487838283738 398.38487297596316Q454.5421357873844 397.387643157418 452.7415819483447 396.58431913692334Q450.94102810930485 395.7809951164287 449.168175098558 394.97767109593394L449.168175098558 394.97767109593394Q442.9631895609439 391.7920758422482 436.702802366744 388.60648058856236Q430.41471434425114 385.42088533487663 424.0158230085866 382.4291958792412L424.0158230085866 382.4291958792412Q417.83853829926545 379.2436006255555 411.3565444787222 374.34055401770866Q404.8745506581789 369.4652082381547 400.3870164747259 363.06631690249014Q395.8994822912729 356.69512639511856 395.8994822912729 349.10509944285855L395.8994822912729 349.10509944285855Q395.8994822912729 336.3627184281153 402.68618522303825 327.9693674553605Q409.4728881548036 319.6037173108987 420.0269037344061 315.4208922386679Q430.60862014230156 311.21036633814396 441.9659597423988 311.21036633814396L441.9659597423988 311.21036633814396Q450.16540491710316 311.21036633814396 456.6473987376464 313.20482597523426Q463.1293925581897 315.1992856123244 469.5005830655613 317.30454856258643Q475.87177357293285 319.40981151284825 483.46180052519287 320.18543470505006L483.46180052519287 320.18543470505006Q484.0712187476371 326.1688136163208 484.6529361417885 332.1521925275915Q485.2623543642327 338.13557143886214 486.4534899808283 344.1189503501329L486.4534899808283 344.1189503501329Q486.6473957788787 344.92227437062763 486.7581990920504 345.7255983911223Q486.84130157692914 346.5289224116169 486.84130157692914 347.3322464321117L486.84130157692914 347.3322464321117Q486.84130157692914 350.5178416857974 484.76373945496016 351.4042681911709Q482.6584765046982 352.31839552483723 480.0822994734567 352.31839552483723L480.0822994734567 352.31839552483723Q477.47842161392214 352.31839552483723 477.2845158158717 351.32116570629205Q477.0906100178213 350.323935887747 476.6750975934275 348.32947625065674L476.6750975934275 348.32947625065674Q474.098920562186 332.3737991539348 465.7055695894312 324.28515729240223Q457.3399194449694 316.19651543086957 440.5809183277528 316.19651543086957L440.5809183277528 316.19651543086957Q428.22634890911047 316.19651543086957 421.3288426641734 322.7893125645845Q414.4590372475292 329.3821096982995 414.4590372475292 341.9305849149922L414.4590372475292 341.9305849149922Q414.4590372475292 350.323935887747 418.83576811781063 356.08570817267434Q423.2401998163849 361.87518128589466 430.49781682913 366.16880967129725Q437.7831346701679 370.46243805669985 446.45349392585183 374.2574515328298Q455.1515540098287 378.0247641806669 463.71110995234096 382.0136834548474Q472.29836672314616 386.0026027290279 479.5836845641842 391.2934609329757Q486.84130157692914 396.58431913692334 491.2457332755034 403.9527394628401Q495.62246414578476 411.3488606170497 495.62246414578476 421.9028761966522Z " fill="#FFFF" transform="matrix(0.6334840495841547,0,0,0.6334840495841547,0,55.34190468671086)"/><path d="M706.8206612672599 373.0269726620994L706.8206612672599 373.0269726620994Q706.8206612672599 364.0515111954626 704.8835113104318 354.7531914026879Q702.9463613536037 345.4548716099131 698.5985358949453 337.5556045637363Q694.2722343246959 329.63481362915047 686.9756361539768 324.77041484867107Q679.7005618716669 319.88449217978246 669.003189332294 319.88449217978246L669.003189332294 319.88449217978246Q658.6286751190593 319.88449217978246 651.3320769483402 324.985653732763Q644.0570026660303 330.1083391741529 639.5585099885074 338.2443689928308Q635.0600173109843 346.3803988115087 632.9722001352918 355.7648141579202Q630.8843829595993 365.12770561592265 630.8843829595993 373.8018326448306L630.8843829595993 373.8018326448306Q630.8843829595993 382.94948521874096 632.7354373627905 392.18323334628815Q634.6080156543911 401.39545758542613 638.9343172246405 409.0579618591016Q643.282142683299 416.7419900211863 650.6433125192457 421.39114991757367Q658.0044823551924 426.04030981396113 669.003189332294 426.04030981396113L669.003189332294 426.04030981396113Q680.0018963093956 426.04030981396113 687.2984944801148 421.24048269870934Q694.5735687624247 416.41913169504824 698.8352986674464 408.6059602025084Q703.0970285724683 400.77126482155927 704.9696068640686 391.47294502878447Q706.8206612672599 382.1746252360098 706.8206612672599 373.0269726620994ZM723.7169136684826 372.5749710055062L723.7169136684826 372.5749710055062Q723.7169136684826 389.77255784445765 717.431938252996 402.8590819972518Q711.1684867259186 415.96713003845514 698.9859658863109 423.2422043207649Q686.8249689351123 430.53880249148403 669.003189332294 430.53880249148403L669.003189332294 430.53880249148403Q651.6549352744781 430.53880249148403 639.321747216006 423.4789670932662Q627.0100830459431 416.41913169504824 620.5098687463645 403.633941979983Q613.9881305583766 390.8487522649177 613.9881305583766 373.8018326448306L613.9881305583766 373.8018326448306Q613.9881305583766 361.87759846613335 617.8624304720328 351.33089314562494Q621.7367303856889 340.8057117135256 629.033328556408 332.73425356007533Q636.3084028387179 324.68431929503424 646.4676781678608 320.1212549522836Q656.6054296085944 315.5366667211239 669.003189332294 315.5366667211239L669.003189332294 315.5366667211239Q686.3729672785191 315.5366667211239 698.5339642297176 322.74716933820616Q710.694961180916 329.95767195528845 717.1951754804949 342.7428616703538Q723.7169136684826 355.5280513854191 723.7169136684826 372.5749710055062ZM828.1723441183343 425.8896425950967L828.1723441183343 425.8896425950967Q828.1723441183343 427.74069699828794 825.460334178775 428.6662241998836Q822.7483242392158 429.5917514014792 819.4766932010172 429.9146097276173Q816.2265860512279 430.21594416534606 814.8275333046298 430.21594416534606L814.8275333046298 430.21594416534606Q809.5757045327849 430.21594416534606 806.47626460186 426.04030981396113Q803.376824670935 421.8431515741669 801.8271047054726 417.3661827850532L801.8271047054726 417.3661827850532Q796.5537520452184 424.0170643034962 788.6544849990415 427.2671714532855Q780.7336940644558 430.53880249148403 772.2102342544123 430.53880249148403L772.2102342544123 430.53880249148403Q758.26275456525 430.53880249148403 752.9248302397681 423.32829987440175Q747.5869059142864 416.11779725731947 747.5869059142864 402.9451775508886L747.5869059142864 402.9451775508886Q747.5869059142864 391.32227780992014 747.6514775795139 379.61328251531484Q747.7375731331507 367.92581110911874 747.8882403520153 356.30291136815026L747.8882403520153 356.30291136815026Q747.8882403520153 351.6537514717629 743.3897476744922 351.6537514717629L743.3897476744922 351.6537514717629Q742.1628860351678 351.6537514717629 740.9145005074341 351.80441869062736Q739.6661149797004 351.9550859094917 738.439253340376 351.9550859094917L738.439253340376 351.9550859094917Q737.9657277953737 351.9550859094917 737.7289650228723 351.41698869926176Q737.5137261387803 350.87889148903173 737.5137261387803 350.55603316289364L737.5137261387803 350.55603316289364Q737.5137261387803 348.8556459785668 739.0634461042429 348.7049787597024L739.0634461042429 348.7049787597024Q744.4874659833614 348.0807859958355 749.9760575277077 347.8440232233344Q755.486172960463 347.6287843392423 760.9101928395818 347.00459157537557L760.9101928395818 347.00459157537557Q762.1370544789062 348.23145321469997 762.1370544789062 350.10403150630043L762.1370544789062 350.10403150630043Q762.1370544789062 353.9783314199566 761.9863872600419 358.0032985524772Q761.8357200411773 362.0282656849977 761.8357200411773 366.0532328175183L761.8357200411773 366.0532328175183Q761.685052822313 375.5237437175666 761.5989572686761 385.0373023944335Q761.5343856034486 394.57238495970944 761.5343856034486 404.1935630786222L761.5343856034486 404.1935630786222Q761.5343856034486 407.12081190227354 761.685052822313 410.45701460569967Q761.8357200411773 413.7932173091258 762.9119144616374 416.5913228023219L762.9119144616374 416.5913228023219Q764.6338255343734 420.91762437257125 769.3475570959885 422.704107110535Q774.0828125460126 424.49058984849864 778.409114116262 424.49058984849864L778.409114116262 424.49058984849864Q783.230465119923 424.49058984849864 788.0948639004024 422.704107110535Q792.9807865692909 420.91762437257125 796.4676564915816 417.4307544502807Q799.954526413872 413.94388452799024 800.4280519588746 408.67053186773603L800.4280519588746 408.67053186773603Q800.7293863966032 406.0446174818135 800.81548195024 403.3326075422542Q800.8800536154678 400.62059760269483 800.8800536154678 397.9946832167724L800.8800536154678 397.9946832167724L800.7293863966032 355.82938582314785Q800.7293863966032 353.82766420109215 799.416429203642 352.8806131110873Q798.1034720106808 351.9550859094917 796.4030848263538 351.9550859094917L796.4030848263538 351.9550859094917Q794.8533648608915 351.9550859094917 793.3682165606566 352.1057531283561Q791.9045921488308 352.2779442356298 790.3548721833685 352.2779442356298L790.3548721833685 352.2779442356298Q788.9558194367704 352.2779442356298 788.9558194367704 350.7282242701673L788.9558194367704 350.7282242701673Q788.9558194367704 349.1785043047048 790.3548721833685 349.00631319743127L790.3548721833685 349.00631319743127Q792.2059265865597 348.7049787597024 794.2291720970246 348.61888320606556Q796.2308937190804 348.55431154083806 798.2541392295451 348.4036443219736L798.2541392295451 348.4036443219736L808.9515117689181 347.30592601310434Q810.0277061893781 347.1552587942399 811.189996163475 347.00459157537557Q812.3522861375717 346.85392435651113 813.4500044464411 346.85392435651113L813.4500044464411 346.85392435651113Q814.2248644291723 346.85392435651113 814.5261988669012 347.69335600446993Q814.8275333046298 348.55431154083806 814.8275333046298 349.00631319743127L814.8275333046298 349.00631319743127Q814.3755316480366 382.6481507810122 814.3755316480366 416.11779725731947L814.3755316480366 416.11779725731947Q814.3755316480366 419.9920971709756 816.1620143860004 422.46734433803374Q817.9269732355548 424.94259150509185 822.1241314753489 424.94259150509185L822.1241314753489 424.94259150509185Q823.3509931146733 424.94259150509185 824.3626158699059 424.641257067363Q825.3742386251382 424.3399226296342 826.4504330455983 424.3399226296342L826.4504330455983 424.3399226296342Q828.1723441183343 424.3399226296342 828.1723441183343 425.8896425950967ZM897.134882581414 361.10273848340205L897.134882581414 361.10273848340205Q897.134882581414 362.65245844886454 895.9725926073171 363.96541564182576Q894.8103026332202 365.2783728347871 893.0883915604842 365.2783728347871L893.0883915604842 365.2783728347871Q890.7638116122906 365.2783728347871 889.7737127454672 363.7286528693246Q888.7620899902348 362.1789329038621 888.0518016727311 360.1772112818064Q887.3630372436368 358.15396577134163 885.9639844970387 356.60424580587915Q884.5649317504407 355.05452584041666 881.3148246006514 355.05452584041666L881.3148246006514 355.05452584041666Q880.6906318367845 355.05452584041666 880.1525346265545 355.05452584041666Q879.6144374163244 355.05452584041666 878.9902446524576 355.2051930592811L878.9902446524576 355.2051930592811Q876.3643302665351 355.6787186042835 873.2648903356102 358.4768240974796Q870.1654504046852 361.2534057022665 867.3027732462616 365.06313395069503Q864.4185721994287 368.85133831071437 862.5675177962374 372.5749710055062Q860.7164633930462 376.2986037002979 860.5442722857725 378.77385086735603L860.5442722857725 378.77385086735603Q860.3936050669082 381.24909803441415 860.3936050669082 383.65977353624464Q860.3936050669082 386.04892514966593 860.3936050669082 388.3735050978596L860.3936050669082 388.3735050978596Q860.3936050669082 396.74629768903867 860.4797006205448 405.11909028021785Q860.5442722857725 413.491882871397 860.5442722857725 421.69248435530255L860.5442722857725 421.69248435530255Q860.5442722857725 424.0170643034962 862.4814222426006 425.0286870587287Q864.4185721994287 426.04030981396113 866.4418177098936 426.04030981396113L866.4418177098936 426.04030981396113Q867.991537675356 426.04030981396113 869.5412576408183 425.8896425950967Q871.090977606281 425.71745148782304 872.6406975717433 425.71745148782304L872.6406975717433 425.71745148782304Q873.4155575544745 425.71745148782304 873.7168919922034 426.4277398053267Q874.0397503183414 427.1165042344211 874.0397503183414 427.74069699828794L874.0397503183414 427.74069699828794Q874.0397503183414 430.21594416534606 871.5645031512832 430.21594416534606L871.5645031512832 430.21594416534606Q866.9153432548959 430.21594416534606 862.2661833585086 429.9791813928448Q857.6170234621212 429.76394250875285 852.9678635657339 429.76394250875285L852.9678635657339 429.76394250875285Q848.1465125620729 429.76394250875285 843.2821137815935 430.0652769464816Q838.3961911127047 430.3666113842105 833.4241728901794 430.3666113842105L833.4241728901794 430.3666113842105Q832.8215040147219 430.3666113842105 832.5847412422205 429.4410841826149Q832.3479784697194 428.51555698101913 832.3479784697194 427.8913642171524L832.3479784697194 427.8913642171524Q832.3479784697194 426.3416442516899 833.5963639974531 426.19097703282546L833.5963639974531 426.19097703282546Q835.2967511817798 425.8896425950967 837.147805584971 426.04030981396113Q839.0203838765716 426.19097703282546 840.570103842034 426.19097703282546L840.570103842034 426.19097703282546Q842.8946837902278 426.19097703282546 844.3583082020535 425.179354277593Q845.8219326138791 424.16773152236067 845.9941237211527 421.69248435530255L845.9941237211527 421.69248435530255Q846.2954581588816 416.7419900211863 846.3815537125182 411.61930457979656Q846.446125377746 406.5181430268159 846.446125377746 401.39545758542613L846.446125377746 401.39545758542613L846.446125377746 386.3717834758039Q846.2954581588816 379.69937806895166 846.3815537125182 373.1130682157361Q846.446125377746 366.5267583625207 845.8219326138791 360.0265440629421L845.8219326138791 360.0265440629421Q845.6712653950148 356.9271041320171 844.1215454295522 355.5926230506467Q842.5718254640898 354.2796658576855 839.4723855331648 354.2796658576855L839.4723855331648 354.2796658576855Q838.2455238938404 354.2796658576855 836.9110428124699 354.5164286301866Q835.5980856195087 354.7531914026879 834.1990328729106 354.7531914026879L834.1990328729106 354.7531914026879Q832.9721712335862 354.7531914026879 832.9721712335862 352.8806131110873L832.9721712335862 352.8806131110873Q832.9721712335862 351.80441869062736 834.0483656540463 351.33089314562494L834.0483656540463 351.33089314562494Q835.5980856195087 350.87889148903173 837.2984728038356 350.64212871653046Q839.0203838765716 350.4053659440293 840.570103842034 350.25469872516487L840.570103842034 350.25469872516487Q844.745738193419 349.4798387424337 848.9213725448041 348.7049787597024Q853.1185307845982 347.9301187769712 857.294165135983 346.85392435651113L857.294165135983 346.85392435651113Q858.6932178825813 347.30592601310434 859.3174106464481 348.55431154083806L859.3174106464481 348.55431154083806Q859.6187450841768 349.1785043047048 859.7694123030413 351.9550859094917Q859.9416034103148 354.7531914026879 859.9416034103148 358.3907285438428Q859.9416034103148 362.0282656849977 859.9416034103148 365.2138011695595Q859.9416034103148 368.37781276571195 859.9416034103148 369.62619829344567L859.9416034103148 369.62619829344567Q863.3423777789686 364.202178414327 867.6902032376271 358.7781585352084Q872.0165048078765 353.35413865608973 877.5911919058595 349.78117318016245Q883.1874028922517 346.22973159264427 890.1611427368329 346.22973159264427L890.1611427368329 346.22973159264427Q893.8632515432154 346.22973159264427 894.9609698520845 348.55431154083806Q896.0371642725446 350.87889148903173 896.3600225986828 353.9783314199566L896.3600225986828 353.9783314199566Q896.6613570364117 355.6787186042835 896.8981198089128 357.5297730074748Q897.134882581414 359.40235129907524 897.134882581414 361.10273848340205ZM1023.4370597666046 400.9219320404237L1023.4370597666046 400.9219320404237Q1023.4370597666046 409.7682501766052 1019.3905687456748 415.64427171231705Q1015.3656016131544 421.5418171364381 1008.7792917599387 425.0286870587287Q1002.1929819067233 428.51555698101913 994.5304776330478 429.9791813928448Q986.846449470963 431.46432969307966 979.5713751886532 431.46432969307966L979.5713751886532 431.46432969307966Q970.1223881770142 431.46432969307966 961.749595585835 428.51555698101913L961.749595585835 428.51555698101913Q958.3488212171811 427.2671714532855 955.0771901789827 425.80354704145986Q951.8270830291934 424.3399226296342 948.2756414416752 423.39287153962937L948.2756414416752 423.39287153962937Q947.6514486778084 418.44237720551314 946.1663003775735 412.5448317813922Q944.702675965748 406.66881024568033 944.702675965748 401.86898313042855L944.702675965748 401.86898313042855Q944.702675965748 399.6950704010992 945.3914403948423 398.5327804270024Q946.101728712346 397.3704904529055 948.5769758794039 397.3704904529055L948.5769758794039 397.3704904529055Q950.7508886087334 397.3704904529055 951.3750813726002 398.382113208138Q951.9777502480578 399.3722120749612 952.3006085741957 401.09412314769725L952.3006085741957 401.09412314769725Q952.9248013380626 403.2465119886174 953.3768029946558 405.355853052719Q953.8503285396581 407.4436702284115 954.474521303525 409.61758295774086L954.474521303525 409.61758295774086Q957.5739612344499 418.91590275051556 963.6867455426631 422.6180115568982Q969.799529850876 426.3416442516899 979.4207079697889 426.3416442516899L979.4207079697889 426.3416442516899Q987.3199750159655 426.3416442516899 993.6049504314523 424.10315985713305Q999.8684019585297 421.8431515741669 1003.5059390996847 416.7419900211863Q1007.1650001292486 411.61930457979656 1007.1650001292486 403.09584476975294L1007.1650001292486 403.09584476975294Q1007.1650001292486 396.4449632513099 1002.6665074517258 391.0855150374189Q998.1680147742028 385.74759071193705 992.743994895084 382.6481507810122L992.743994895084 382.6481507810122Q991.4956093673505 381.8732907982809 990.1180805091616 381.24909803441415Q988.7190277625635 380.6249052705473 987.3199750159655 380.00071250668043L987.3199750159655 380.00071250668043Q982.5201479007138 377.5254653396223 977.6342252318251 375.0502181725642Q972.7483025629366 372.5749710055062 967.7978082288204 370.2503910573124L967.7978082288204 370.2503910573124Q962.9979811135685 367.7751438902544 957.9613912258156 363.96541564182576Q952.9248013380626 360.1772112818064 949.4379314157719 355.2051930592811Q945.9510614934815 350.25469872516487 945.9510614934815 344.3571533010438L945.9510614934815 344.3571533010438Q945.9510614934815 334.45616463281146 951.2028902653263 327.93442644482354Q956.4762429255808 321.43421214524494 964.6983682978954 318.1841049954555Q972.8989697818009 314.912473957257 981.7452879179824 314.912473957257L981.7452879179824 314.912473957257Q988.0948349986967 314.912473957257 993.1314248864497 316.4621939227195Q998.1680147742028 318.011913888182 1003.118509108319 319.6477294072812Q1008.0905273308443 321.2835449263805 1013.9665488665561 321.88621380183815L1013.9665488665561 321.88621380183815Q1014.4400744115586 326.5353736982255 1014.9135999565611 331.18453359461284Q1015.3656016131544 335.8336934910003 1016.2911288147499 340.48285338738765L1016.2911288147499 340.48285338738765Q1016.4633199220235 341.1070461512545 1016.5278915872512 341.73123891512125Q1016.6139871408878 342.3554316789881 1016.6139871408878 342.97962444285497L1016.6139871408878 342.97962444285497Q1016.6139871408878 345.4548716099131 1014.9781716217886 346.14363603900745Q1013.3638799910985 346.85392435651113 1011.3406344806336 346.85392435651113L1011.3406344806336 346.85392435651113Q1009.3173889701687 346.85392435651113 1009.1667217513044 346.07906437377994Q1009.0160545324401 345.30420439104864 1008.7147200947112 343.75448442558616L1008.7147200947112 343.75448442558616Q1006.6914745842463 331.3567247018865 1000.1912602846677 325.07174928639984Q993.6695220966798 318.7867738709132 980.6475696091132 318.7867738709132L980.6475696091132 318.7867738709132Q971.0479153786097 318.7867738709132 965.709991053128 323.90945931230306Q960.3505428392369 329.0321447536928 960.3505428392369 338.78246620306084L960.3505428392369 338.78246620306084Q960.3505428392369 345.30420439104864 963.7728410962999 349.78117318016245Q967.1736154649535 354.2796658576855 972.8343981165734 357.6158685611116Q978.4951807681931 360.9520712645377 985.2321578402731 363.90084397659825Q991.9691349123528 366.8280928002496 998.6415403192051 369.92753273117444Q1005.2924218376482 373.0269726620994 1010.9532044892682 377.1380353482567Q1016.6139871408878 381.24909803441415 1020.0147615095417 386.97445235126156Q1023.4370597666046 392.7213305565182 1023.4370597666046 400.9219320404237ZM1085.727192822832 422.94086988303616L1085.727192822832 422.94086988303616Q1085.727192822832 424.3399226296342 1083.6393756471393 425.71745148782304Q1081.5515584714467 427.1165042344211 1078.6027857593863 428.21422254329036Q1075.6540130473259 429.29041696375043 1072.9420031077666 429.9146097276173Q1070.2299931682073 430.53880249148403 1068.9816076404736 430.53880249148403L1068.9816076404736 430.53880249148403Q1060.9316733754326 430.53880249148403 1056.5192762515462 428.51555698101913Q1052.1068791276602 426.49231147055434 1050.3203963896963 421.8431515741669Q1048.5339136517327 417.19399167777954 1048.5339136517327 409.2947246316028L1048.5339136517327 409.2947246316028Q1048.5339136517327 396.4449632513099 1048.6200092053696 383.487582428971Q1048.684580870597 370.5517254950413 1048.8352480894614 357.7019641147484L1048.8352480894614 357.7019641147484L1037.6858738934957 357.7019641147484Q1036.6096794730356 357.7019641147484 1035.8993911555317 358.24006132497834Q1035.2106267264376 358.7781585352084 1034.4357667437062 358.7781585352084L1034.4357667437062 358.7781585352084Q1033.6609067609747 358.7781585352084 1033.6609067609747 357.7019641147484L1033.6609067609747 357.7019641147484Q1033.6609067609747 357.07777135088156 1034.5003384089337 355.2051930592811Q1035.361293945302 353.35413865608973 1035.6626283830306 352.729945892223L1035.6626283830306 352.729945892223Q1036.1361539280329 352.8806131110873 1037.0616811296286 352.8806131110873L1037.0616811296286 352.8806131110873L1049.1581064155998 352.8806131110873L1049.3087736344642 333.20777910507775Q1052.8817391103912 330.8831991568841 1055.8089879340428 328.02052199846037Q1058.7577606461032 325.15784484003666 1061.7065333581636 322.2090721279761L1061.7065333581636 322.2090721279761Q1062.0078677958927 321.88621380183815 1062.3307261220307 321.6709749177461Q1062.6320605597593 321.43421214524494 1062.9549188858973 321.43421214524494L1062.9549188858973 321.43421214524494Q1064.332447744086 321.43421214524494 1064.332447744086 322.5104065657049L1064.332447744086 322.5104065657049L1063.4069205424908 352.729945892223Q1068.3789387650158 352.729945892223 1073.2433375454953 352.57927867335854Q1078.129260214384 352.4286114544941 1082.9290873296359 352.4286114544941L1082.9290873296359 352.4286114544941Q1084.9523328401006 352.4286114544941 1084.9523328401006 354.7531914026879L1084.9523328401006 354.7531914026879Q1084.9523328401006 357.7019641147484 1082.326418454178 357.7019641147484L1082.326418454178 357.7019641147484L1063.4069205424908 357.7019641147484Q1063.4069205424908 369.4755310745812 1063.3423488772632 381.33519358805086Q1063.256253323626 393.1733322131114 1063.256253323626 405.11909028021785L1063.256253323626 405.11909028021785L1063.256253323626 417.0433244589151Q1063.256253323626 420.91762437257125 1066.5063604734155 422.4027726728061Q1069.756467623205 423.8663970846318 1072.8559075541298 423.8663970846318L1072.8559075541298 423.8663970846318Q1077.2037330127882 423.8663970846318 1081.3793673641735 422.46734433803374L1081.3793673641735 422.46734433803374Q1081.8528929091758 422.16600990030497 1082.7784201107715 421.8431515741669Q1083.7039473123668 421.5418171364381 1084.1774728573691 421.5418171364381L1084.1774728573691 421.5418171364381Q1085.727192822832 421.5418171364381 1085.727192822832 422.94086988303616ZM1180.2601107160422 348.4036443219736L1180.2601107160422 348.4036443219736Q1180.2601107160422 349.9533642874361 1179.183916295582 350.10403150630043Q1178.0861979867127 350.25469872516487 1176.2997152487492 350.25469872516487Q1174.5347563991945 350.25469872516487 1172.748273661231 351.02955870789606Q1170.961790923267 351.80441869062736 1169.562738176669 354.60252418382345L1169.562738176669 354.60252418382345Q1161.9648055682214 369.4755310745812 1155.6152584875072 384.97273072920586Q1149.265711406793 400.4699303838305 1141.667778798345 415.3429372745883L1141.667778798345 415.3429372745883Q1137.169286120822 424.3399226296342 1132.7568889969357 433.40147964990774Q1128.3444918730497 442.4630366701814 1122.9204719939307 450.9864964802249L1122.9204719939307 450.9864964802249Q1119.9716992818703 455.63565637661225 1115.9467321493498 458.43376186980845Q1111.9217650168293 461.21034347459533 1106.3470779188465 461.21034347459533L1106.3470779188465 461.21034347459533Q1101.697918022459 461.21034347459533 1097.8881897740303 459.20862185253964Q1094.099985414011 457.18537634207473 1094.099985414011 451.91202368182053L1094.099985414011 451.91202368182053Q1094.099985414011 448.5112493131668 1096.6613281347059 446.1866693649731Q1099.2011469669915 443.86208941677944 1102.4727780051903 443.86208941677944L1102.4727780051903 443.86208941677944Q1103.850306863379 443.86208941677944 1105.249359609977 444.31409107337265L1105.249359609977 444.31409107337265Q1104.3238324083813 446.1866693649731 1104.3238324083813 447.8870565492999L1104.3238324083813 447.8870565492999Q1104.3238324083813 450.2116364974937 1106.1103151463449 451.52459369045494Q1107.8967978843089 452.83755088341616 1109.8985195063642 452.83755088341616L1109.8985195063642 452.83755088341616Q1112.9979594372894 452.83755088341616 1115.5593021579843 451.0725920338617Q1118.1206448786793 449.2861092958981 1119.6703648441417 446.81086212884L1119.6703648441417 446.81086212884Q1122.4469464489284 442.6137038890457 1124.3840964057567 437.51254233606517Q1126.3212463625846 432.3898568946753 1126.3212463625846 427.4393625605592L1126.3212463625846 427.4393625605592Q1126.3212463625846 425.26544983122983 1126.019911924856 423.0915371019006Q1125.7185774871268 420.91762437257125 1125.0943847232602 418.91590275051556L1125.0943847232602 418.91590275051556Q1124.1688575216644 415.64427171231705 1122.9204719939307 412.4802601161646Q1121.6720864661975 409.2947246316028 1120.4452248268726 406.1952847006779L1120.4452248268726 406.1952847006779Q1118.421979316408 401.2447903665617 1116.48482935958 396.4449632513099Q1114.5476794027518 391.6236122476489 1112.3737666734223 386.8237851323971L1112.3737666734223 386.8237851323971Q1109.4465178497712 379.8500452878161 1106.5623168029383 372.81173377800735Q1103.6996396445147 365.7518983797895 1100.2988652758609 359.07949297293726L1100.2988652758609 359.07949297293726Q1099.8253397308586 358.30463299020596 1099.4379097394926 357.5297730074748Q1099.0504797481271 356.7549130247435 1098.4262869842605 355.9800530420123L1098.4262869842605 355.9800530420123Q1097.651427001529 354.7531914026879 1096.4891370274322 353.89223586631977Q1095.3268470533353 353.05280421836096 1093.6264598690086 353.05280421836096L1093.6264598690086 353.05280421836096Q1092.5502654485485 353.05280421836096 1091.3018799208148 353.2034714372254Q1090.0750182814904 353.35413865608973 1088.8266327537567 353.35413865608973L1088.8266327537567 353.35413865608973Q1088.0517727710258 353.35413865608973 1087.578247226023 352.66537422699537Q1087.12624556943 351.9550859094917 1087.12624556943 351.33089314562494L1087.12624556943 351.33089314562494Q1087.12624556943 350.10403150630043 1088.525298316028 349.78117318016245L1088.525298316028 349.78117318016245Q1090.0750182814904 349.32917152356924 1091.6893099121803 349.1785043047048Q1093.3251254312795 349.00631319743127 1094.8748453967423 348.8556459785668L1094.8748453967423 348.8556459785668Q1098.2756197653957 348.23145321469997 1101.697918022459 347.6287843392423Q1105.0986923911128 347.00459157537557 1108.4994667597662 346.6817332492375L1108.4994667597662 346.6817332492375Q1108.972992304769 346.53106603037315 1109.4465178497712 346.53106603037315Q1109.8985195063642 346.53106603037315 1110.372045051367 346.53106603037315L1110.372045051367 346.53106603037315Q1111.9217650168293 346.53106603037315 1112.4598622270591 347.4565932319688Q1112.9979594372894 348.4036443219736 1113.622152201156 349.630505961298L1113.622152201156 349.630505961298Q1117.1951176770835 357.37910578861033 1120.122366500735 365.51513560728824Q1123.0711392127955 373.65116542596616 1126.019911924856 381.72262357941656L1126.019911924856 381.72262357941656Q1129.1193518557807 389.29903229945523 1131.9174573489768 397.04763212676755Q1134.6940389537635 404.7962319540799 1137.6428116658244 412.5448317813922L1137.6428116658244 412.5448317813922Q1138.7190060862845 410.5431101593365 1140.828347150386 405.8078547093123Q1142.9161643260786 401.09412314769725 1145.6281742656379 394.95981495107503Q1148.3401842051971 388.847030642862 1151.116765809984 382.1746252360098Q1153.91487130318 375.5237437175666 1156.3255468050106 369.4755310745812Q1158.714698418432 363.42731843159584 1160.1998467186668 359.01492130770964Q1161.6634711304923 354.60252418382345 1161.6634711304923 352.8806131110873L1161.6634711304923 352.8806131110873Q1161.6634711304923 350.87889148903173 1159.6402256200276 350.491461497666Q1157.6385039979718 350.10403150630043 1155.1632568309137 350.25469872516487Q1152.6664857754467 350.4053659440293 1151.439624136122 350.4053659440293L1151.439624136122 350.4053659440293Q1150.8154313722553 350.4053659440293 1150.341905827253 349.78117318016245Q1149.8899041706595 349.1785043047048 1149.8899041706595 348.55431154083806L1149.8899041706595 348.55431154083806Q1149.8899041706595 347.00459157537557 1151.5041958013494 346.91849602173875Q1153.140011320449 346.85392435651113 1154.0655385220443 346.85392435651113L1154.0655385220443 346.85392435651113Q1156.712976796376 346.85392435651113 1159.4895584011633 346.91849602173875Q1162.2876638943594 347.00459157537557 1164.9135782802819 347.00459157537557L1164.9135782802819 347.00459157537557Q1168.486543756209 347.00459157537557 1171.9734136784996 346.85392435651113Q1175.4602836007903 346.6817332492375 1178.8610579694441 346.6817332492375L1178.8610579694441 346.6817332492375Q1179.635917952175 346.6817332492375 1179.958776278313 347.2413543478767Q1180.2601107160422 347.77945155810676 1180.2601107160422 348.4036443219736ZM1227.8279041003761 428.0420314360167L1227.8279041003761 428.0420314360167Q1227.8279041003761 428.816891418748 1227.4404741090107 429.5271797362516Q1227.0530441176447 430.21594416534606 1226.127516916049 430.21594416534606L1226.127516916049 430.21594416534606Q1221.327689800797 430.21594416534606 1216.3771954666809 429.9791813928448Q1211.4051772441558 429.76394250875285 1206.4546829100395 429.76394250875285L1206.4546829100395 429.76394250875285L1201.030663030921 429.76394250875285Q1197.7805558811315 429.76394250875285 1194.508924842933 429.9791813928448Q1191.2588176931436 430.21594416534606 1188.0087105433545 430.21594416534606L1188.0087105433545 430.21594416534606Q1187.3845177794874 430.21594416534606 1187.1477550069862 429.677846955116Q1186.9325161228944 429.139749744886 1186.9325161228944 428.6662241998836L1186.9325161228944 428.6662241998836Q1186.9325161228944 428.21422254329036 1186.9325161228944 427.74069699828794Q1186.9325161228944 427.2671714532855 1187.0831833417587 426.8151697966923L1187.0831833417587 426.8151697966923Q1187.3845177794874 426.19097703282546 1188.8696660797223 426.10488147918863Q1190.3332904915478 426.04030981396113 1191.9691060106475 426.10488147918863Q1193.5833976413373 426.19097703282546 1194.0569231863396 426.19097703282546L1194.0569231863396 426.19097703282546Q1196.230835915669 426.19097703282546 1197.9312230999958 425.179354277593Q1199.631610284323 424.16773152236067 1199.631610284323 421.69248435530255L1199.631610284323 421.69248435530255Q1199.631610284323 409.7682501766052 1199.7822775031873 397.90858766313556Q1199.9329447220516 386.04892514966593 1199.9329447220516 374.275358189833L1199.9329447220516 374.275358189833Q1199.9329447220516 362.1789329038621 1199.868373056824 350.0179359526636Q1199.7822775031873 337.8569390014651 1199.7822775031873 325.7605137154943L1199.7822775031873 325.7605137154943Q1199.7822775031873 324.68431929503424 1199.631610284323 323.371362102073Q1199.4809430654582 322.0584049091117 1198.7060830827272 321.2835449263805L1198.7060830827272 321.2835449263805Q1198.0818903188601 320.5086849436493 1197.4576975549935 320.4225893900125Q1196.8335047911264 320.33649383637567 1195.9079775895311 320.33649383637567L1195.9079775895311 320.33649383637567Q1193.1313959847444 320.33649383637567 1190.4193860451846 321.2835449263805Q1187.7073761056254 322.2090721279761 1185.0599378312936 322.2090721279761L1185.0599378312936 322.2090721279761Q1183.359550646967 322.2090721279761 1183.359550646967 320.1858266175112L1183.359550646967 320.1858266175112Q1183.359550646967 318.9589649781868 1185.2967006037948 318.4854394331844Q1187.233850560623 318.011913888182 1188.3100449810831 317.86124666931755L1188.3100449810831 317.86124666931755Q1193.7340648602017 316.63438502999315 1200.1051358293253 315.08466506453067Q1206.4546829100395 313.5349450990682 1211.55584446302 311.5116995886033L1211.55584446302 311.5116995886033Q1211.878702789158 311.5116995886033 1212.1800372268867 311.3610323697389Q1212.5028955530247 311.2103651508745 1212.6535627718895 311.2103651508745L1212.6535627718895 311.2103651508745Q1213.5790899734848 311.2103651508745 1213.815852745986 311.81303402633216Q1214.0526155184875 312.4372267901989 1214.0526155184875 313.2120867729302L1214.0526155184875 313.2120867729302Q1214.0526155184875 317.5599122315888 1213.9665199648507 321.82164213661054Q1213.8804244112139 326.0833720416323 1213.8804244112139 330.40967361188166L1213.8804244112139 330.40967361188166L1213.8804244112139 373.8018326448306Q1213.8804244112139 385.74759071193705 1214.0526155184875 397.7579204442711Q1214.2032827373519 409.7682501766052 1214.2032827373519 421.69248435530255L1214.2032827373519 421.69248435530255Q1214.2032827373519 424.16773152236067 1216.2910999130445 425.179354277593Q1218.3789170887367 426.19097703282546 1220.4021625992013 426.19097703282546L1220.4021625992013 426.19097703282546Q1222.1025497835285 426.19097703282546 1223.6522697489909 426.04030981396113Q1225.2019897144537 425.8896425950967 1226.751709679916 425.8896425950967L1226.751709679916 425.8896425950967Q1227.526569662647 425.8896425950967 1227.6772368815114 426.7290742430555Q1227.8279041003761 427.5900297794235 1227.8279041003761 428.0420314360167ZM1295.8649153618599 375.67441093643106L1295.8649153618599 375.67441093643106Q1295.7142481429955 369.3248638557168 1294.7887209413998 363.51341398523255Q1293.863193739804 357.7019641147484 1290.290228263877 353.89223586631977Q1286.7172627879495 350.10403150630043 1278.6673285229085 350.10403150630043L1278.6673285229085 350.10403150630043Q1271.3922542405985 350.10403150630043 1266.807666009439 354.0429030851842Q1262.2446016666881 358.0032985524772 1259.76935449963 363.96541564182576Q1257.2725834441626 369.92753273117444 1256.0457218048382 376.12641259302427L1256.0457218048382 376.12641259302427Q1259.9200217184944 376.2986037002979 1263.6436544132862 376.36317536552554Q1267.3457632196687 376.44927091916236 1271.0693959144605 376.44927091916236L1271.0693959144605 376.44927091916236Q1277.2682757763105 376.44927091916236 1283.46715563816 376.2125081466611Q1289.66603550001 375.97574537415994 1295.8649153618599 375.67441093643106ZM1313.6866949646783 411.16730292320335L1313.6866949646783 411.16730292320335Q1313.6866949646783 411.94216290593454 1313.3853605269496 412.092830124799L1313.3853605269496 412.092830124799Q1312.9118349819469 413.64255009026135 1311.1253522439833 415.8164628195907Q1309.3603933944287 417.9688516605107 1307.1864806650997 419.9060016173388Q1305.0125679357702 421.8431515741669 1303.6135151891722 422.7902026641717L1303.6135151891722 422.7902026641717Q1298.5123536361916 426.3416442516899 1292.0767110018405 428.51555698101913Q1285.6410683674894 430.6894697103485 1279.2915212867752 430.6894697103485L1279.2915212867752 430.6894697103485Q1274.018168626521 430.6894697103485 1267.5825259921698 428.98908252602166Q1261.1468833578188 427.2671714532855 1256.6699145687053 424.3399226296342L1256.6699145687053 424.3399226296342Q1247.974263651388 418.5930444243776 1243.9492965188674 409.2947246316028Q1239.924329386347 399.9964048388281 1239.924329386347 389.9232250633221L1239.924329386347 389.9232250633221Q1239.924329386347 378.45099254121794 1244.4228220638697 368.70067109185004Q1248.921314741393 358.9288257540728 1258.8223034096254 352.8806131110873L1258.8223034096254 352.8806131110873Q1263.3207960871482 350.25469872516487 1268.895483185131 348.46821598720123Q1274.4916941715232 346.6817332492375 1279.5928557245038 346.6817332492375L1279.5928557245038 346.6817332492375Q1288.7405082984142 346.6817332492375 1295.7142481429955 350.4053659440293Q1302.6879879875764 354.12899863882103 1306.6483834548694 360.8659757109009Q1310.5872550337535 367.60295278298076 1310.5872550337535 376.90127257575557L1310.5872550337535 376.90127257575557Q1310.5872550337535 379.5487108500872 1309.4249650596566 380.3235708328185Q1308.2626750855597 381.0984308155497 1305.938095137366 381.0984308155497L1305.938095137366 381.0984308155497Q1302.8386552064408 381.0984308155497 1299.739215275516 380.94776359668526Q1296.6397753445913 380.77557248941173 1293.540335413666 380.6249052705473L1293.540335413666 380.6249052705473Q1289.214033843417 380.3235708328185 1284.9523039383948 380.3235708328185Q1280.6905740333732 380.3235708328185 1276.3427485747147 380.3235708328185L1276.3427485747147 380.3235708328185Q1271.0693959144605 380.3235708328185 1265.7960432542063 380.3235708328185Q1260.5442144823614 380.3235708328185 1255.2708618221072 380.6249052705473L1255.2708618221072 380.6249052705473Q1255.1201946032425 383.1001524376054 1254.9480034959693 385.4247323857991Q1254.7973362771045 387.74931233399275 1254.7973362771045 390.24608338946007L1254.7973362771045 390.24608338946007Q1254.7973362771045 395.9714377063075 1256.1963890237025 402.0842220145205Q1257.5954417703006 408.2185302111428 1260.6948817012258 413.4057873177602Q1263.7943216321505 418.5930444243776 1268.5941487474024 421.77857990893926Q1273.3939758626543 424.94259150509185 1280.217048488371 424.94259150509185L1280.217048488371 424.94259150509185Q1287.1907883329518 424.94259150509185 1293.540335413666 422.7902026641717Q1299.8898824943803 420.6162899348425 1305.1632351546345 415.8164628195907L1305.1632351546345 415.8164628195907Q1306.5622879012326 414.41741007299265 1307.7245778753295 412.78159455389334Q1308.8868678494264 411.16730292320335 1310.2859205960244 409.91891739546963L1310.2859205960244 409.91891739546963Q1311.0607805787558 409.14405741273845 1311.9863077803511 409.14405741273845L1311.9863077803511 409.14405741273845Q1312.7611677630825 409.14405741273845 1313.2346933080848 409.7682501766052Q1313.6866949646783 410.39244294047205 1313.6866949646783 411.16730292320335ZM1381.2501806811597 407.89567188500473L1381.2501806811597 407.89567188500473Q1381.2501806811597 414.86941172958586 1378.150740750235 419.30333274188126Q1375.0513008193097 423.71572986576734 1370.1008064851935 426.04030981396113Q1365.1503121510773 428.3648897621548 1359.2527667269565 429.29041696375043Q1353.3552213028356 430.21594416534606 1347.7805342048523 430.21594416534606L1347.7805342048523 430.21594416534606Q1342.6793726518717 430.21594416534606 1337.6427827641187 429.139749744886Q1332.6061928763656 428.0420314360167 1327.4835074349758 427.5900297794235L1327.4835074349758 427.5900297794235Q1326.4073130145157 423.39287153962937 1325.3956902592836 419.21723718824444Q1324.384067504051 415.0416028368594 1323.1356819763173 410.9951118159297L1323.1356819763173 410.9951118159297Q1322.985014757453 410.5431101593365 1322.4469175472232 408.84272297500956Q1321.908820336993 407.12081190227354 1321.908820336993 406.9701446834091L1321.908820336993 406.9701446834091Q1321.908820336993 405.7432830440847 1322.6836803197243 405.18366194544546Q1323.4585403024553 404.64556473521543 1324.5347347229153 404.64556473521543L1324.5347347229153 404.64556473521543Q1325.6324530317847 404.64556473521543 1326.0844546883777 405.4204247179466L1326.0844546883777 405.4204247179466Q1327.0099818899735 406.5181430268159 1327.7202702074774 408.36919743000715Q1328.4090346365715 410.2202518331984 1329.0332274004386 411.61930457979656L1329.0332274004386 411.61930457979656Q1330.2816129281719 414.09455174685456 1331.2071401297676 415.4290328282251Q1332.1326673313633 416.7419900211863 1334.1559128418285 418.743711643242L1334.1559128418285 418.743711643242Q1340.1826015964043 425.1147826123655 1349.1795869514503 425.1147826123655L1349.1795869514503 425.1147826123655Q1354.1300812855666 425.1147826123655 1358.241143971724 424.0170643034962Q1362.3522066578817 422.94086988303616 1364.8274538249393 419.9060016173388Q1367.3027009919974 416.89265724005077 1367.3027009919974 411.16730292320335L1367.3027009919974 411.16730292320335Q1367.3027009919974 406.1952847006779 1364.2032610610727 402.8590819972518Q1361.103821130148 399.5444031822349 1356.2394223496685 396.8969649079031Q1351.3534996807798 394.27105052198067 1345.9294798016608 391.79580335492255Q1340.5054599225423 389.29903229945523 1335.619537253654 386.2856879221671Q1330.7336145847653 383.27234354487905 1327.63417465384 378.92451808622036Q1324.5347347229153 374.5766926275618 1324.5347347229153 368.37781276571195L1324.5347347229153 368.37781276571195Q1324.5347347229153 360.8014040456733 1328.4951301902083 355.9800530420123Q1332.434001769092 351.1802259267605 1338.632881630942 348.7910743133392Q1344.8317614927919 346.3803988115087 1351.5041668996441 346.3803988115087L1351.5041668996441 346.3803988115087Q1355.8519923583026 346.3803988115087 1359.3388622805933 347.4565932319688Q1362.8257322028835 348.55431154083806 1366.7000321165401 349.9533642874361L1366.7000321165401 349.9533642874361Q1367.9268937558645 350.4053659440293 1369.1752792835978 350.55603316289364Q1370.4021409229226 350.7282242701673 1371.6505264506563 350.7282242701673L1371.6505264506563 350.7282242701673Q1372.4253864333873 350.7282242701673 1373.049579197254 350.7282242701673Q1373.673771961121 350.7282242701673 1374.2764408365788 350.55603316289364L1374.2764408365788 350.55603316289364Q1374.749966381581 353.35413865608973 1375.1373963729466 356.21681581451344Q1375.524826364312 359.07949297293726 1375.8261608020412 362.0282656849977L1375.8261608020412 362.0282656849977Q1375.9983519093148 363.12598399386695 1376.2135907934066 364.5896084056926Q1376.4503535659078 366.0532328175183 1376.4503535659078 367.301618345252L1376.4503535659078 367.301618345252Q1376.4503535659078 368.37781276571195 1375.9983519093148 369.54010273980884Q1375.524826364312 370.7023927139056 1374.125773617714 370.7023927139056L1374.125773617714 370.7023927139056Q1373.049579197254 370.7023927139056 1372.3392908797505 370.4871538298137Q1371.6505264506563 370.2503910573124 1371.1770009056536 369.15267274844325L1371.1770009056536 369.15267274844325Q1370.4021409229226 367.60295278298076 1369.8640437126924 365.83799393342633Q1369.3259465024626 364.0515111954626 1368.701753738596 362.5017912300002L1368.701753738596 362.5017912300002Q1366.7000321165401 357.07777135088156 1361.7280138940146 353.74156864745544Q1356.7775195598983 350.4053659440293 1351.0306413546418 350.4053659440293L1351.0306413546418 350.4053659440293Q1343.7555670723318 350.4053659440293 1340.03193437754 354.66709584905107Q1336.3083016827482 358.9288257540728 1336.3083016827482 366.0532328175183L1336.3083016827482 366.0532328175183Q1336.3083016827482 368.5500038729856 1337.6427827641187 370.8745838211793Q1338.95573995708 373.19916376937294 1340.656127141407 374.8995509536999L1340.656127141407 374.8995509536999Q1343.9062342911961 377.99899088462473 1348.3186314150826 379.69937806895166Q1352.7525524273779 381.3997652532785 1356.7775195598983 383.1001524376054L1356.7775195598983 383.1001524376054Q1362.0508722201525 385.4247323857991 1367.690130983363 388.6963634239976Q1373.350913634983 391.9464705737869 1377.311309102276 396.59563047017434Q1381.2501806811597 401.2447903665617 1381.2501806811597 407.89567188500473Z " fill="#f5f5f5" transform="matrix(0.6334840495841547,0,0,0.6334840495841547,0,55.34190468671086)"/></g></svg>